<svg width="292" height="115" viewBox="0 0 292 115" fill="none" xmlns="http://www.w3.org/2000/svg">
<rect width="292" height="115" rx="12" fill="#11151C"/>
<rect x="129" y="19" width="143" height="72" rx="12" fill="#FC814A"/>
<path d="M142.438 30.5625C142.438 30.4375 142.427 30.3229 142.406 30.2188C142.406 30.1146 142.406 30.0104 142.406 29.9062C142.406 29.7188 142.479 29.5625 142.625 29.4375C142.771 29.2917 143.125 29.1458 143.688 29L152.469 26.9062C152.698 26.8646 153 26.7708 153.375 26.625C153.75 26.4792 154.115 26.4062 154.469 26.4062C155.198 26.4062 155.562 26.7396 155.562 27.4062C155.562 27.4479 155.531 27.875 155.469 28.6875C155.406 29.5 155.323 30.5104 155.219 31.7188C155.115 32.9271 155 34.25 154.875 35.6875C154.75 37.1042 154.625 38.4583 154.5 39.75C154.375 41.0417 154.26 42.1771 154.156 43.1562C154.052 44.1146 153.969 44.7396 153.906 45.0312C154.885 44.4896 155.906 43.9792 156.969 43.5C158.031 43.0208 159.094 42.6042 160.156 42.25C161.24 41.8958 162.312 41.625 163.375 41.4375C164.458 41.2292 165.5 41.125 166.5 41.125C167.771 41.125 168.958 41.3125 170.062 41.6875C171.167 42.0417 172.125 42.6458 172.938 43.5C173.771 44.3333 174.417 45.4375 174.875 46.8125C175.354 48.1667 175.594 49.8333 175.594 51.8125C175.594 52.3125 175.583 52.8333 175.562 53.375C175.542 53.8958 175.5 54.4375 175.438 55L174.094 67.7812C173.99 68.6562 173.927 69.5729 173.906 70.5312C173.885 71.4688 173.875 72.4375 173.875 73.4375C173.875 73.6042 173.875 73.75 173.875 73.875C173.896 73.9792 173.906 74.0729 173.906 74.1562C173.906 74.3438 173.823 74.4896 173.656 74.5938C173.51 74.6979 173.167 74.8333 172.625 75L164.969 77.125C164.74 77.1875 164.438 77.2812 164.062 77.4062C163.688 77.5521 163.323 77.625 162.969 77.625C162.615 77.625 162.344 77.5417 162.156 77.375C161.969 77.2292 161.875 76.9271 161.875 76.4688C162.021 74.9062 162.135 73.6458 162.219 72.6875C162.323 71.7292 162.396 70.9688 162.438 70.4062C162.5 69.8229 162.552 69.3854 162.594 69.0938C162.635 68.7812 162.667 68.5104 162.688 68.2812C162.708 68.0312 162.74 67.7604 162.781 67.4688C162.823 67.1562 162.865 66.7083 162.906 66.125C162.969 65.5417 163.042 64.7708 163.125 63.8125C163.229 62.8542 163.354 61.5938 163.5 60.0312C163.583 59.1979 163.667 58.375 163.75 57.5625C163.854 56.7292 163.906 55.9688 163.906 55.2812C163.906 54.4062 163.854 53.6146 163.75 52.9062C163.667 52.1771 163.5 51.5625 163.25 51.0625C163.021 50.5417 162.698 50.1354 162.281 49.8438C161.865 49.5521 161.333 49.4062 160.688 49.4062C160.208 49.4062 159.552 49.5104 158.719 49.7188C157.906 49.9271 157.083 50.2708 156.25 50.75C155.438 51.2292 154.708 51.8646 154.062 52.6562C153.438 53.4271 153.083 54.3854 153 55.5312C152.833 57.1354 152.698 58.4479 152.594 59.4688C152.51 60.4896 152.438 61.3333 152.375 62C152.312 62.6667 152.26 63.1979 152.219 63.5938C152.198 63.9896 152.177 64.3542 152.156 64.6875C152.135 64.7917 152.104 65.0521 152.062 65.4688C152.021 65.8646 151.969 66.3438 151.906 66.9062C151.844 67.4688 151.781 68.0729 151.719 68.7188C151.656 69.3438 151.594 69.9375 151.531 70.5C151.49 71.0625 151.448 71.5521 151.406 71.9688C151.385 72.3646 151.375 72.6146 151.375 72.7188C151.375 72.8854 151.375 73.0312 151.375 73.1562C151.396 73.2604 151.406 73.3646 151.406 73.4688C151.406 73.6354 151.323 73.7812 151.156 73.9062C151.01 74.0104 150.667 74.1354 150.125 74.2812L141.969 77.125C141.74 77.2083 141.438 77.3125 141.062 77.4375C140.688 77.5625 140.323 77.625 139.969 77.625C139.656 77.625 139.396 77.5312 139.188 77.3438C138.979 77.1771 138.875 76.8854 138.875 76.4688L142.438 30.5625ZM213.406 72.125C213.344 72.8125 213.26 73.2917 213.156 73.5625C213.052 73.8125 212.823 73.9792 212.469 74.0625C210.698 74.5625 208.844 75.0729 206.906 75.5938C204.99 76.0938 203.125 76.7604 201.312 77.5938C201.25 77.6146 201.156 77.625 201.031 77.625C200.865 77.625 200.76 77.5833 200.719 77.5C200.698 77.4167 200.688 77.3229 200.688 77.2188C200.688 77.1771 200.688 77.1042 200.688 77C200.708 76.8958 200.74 76.6979 200.781 76.4062C200.823 76.1354 200.875 75.75 200.938 75.25C201.021 74.75 201.125 74.0833 201.25 73.25C198.917 74.7708 196.844 75.875 195.031 76.5625C193.24 77.2708 191.646 77.625 190.25 77.625C186.771 77.625 184.229 76.7917 182.625 75.125C181.042 73.4375 180.25 70.9271 180.25 67.5938C180.25 66.9896 180.26 66.375 180.281 65.75C180.302 65.1042 180.365 64.4479 180.469 63.7812C180.698 61.3229 180.896 59.2188 181.062 57.4688C181.229 55.6979 181.365 54.1979 181.469 52.9688C181.573 51.7396 181.656 50.7396 181.719 49.9688C181.802 49.1771 181.865 48.5208 181.906 48C181.969 47.4792 182.01 47.0521 182.031 46.7188C182.073 46.3646 182.115 46.0208 182.156 45.6875C182.24 45.0208 182.312 44.5521 182.375 44.2812C182.458 44.0104 182.698 43.8333 183.094 43.75C184.073 43.5625 185 43.3958 185.875 43.25C186.771 43.0833 187.646 42.9167 188.5 42.75C189.375 42.5625 190.26 42.3646 191.156 42.1562C192.052 41.9479 193 41.6979 194 41.4062C194.042 41.4062 194.083 41.4062 194.125 41.4062C194.167 41.3854 194.208 41.375 194.25 41.375C194.5 41.375 194.625 41.4583 194.625 41.625V41.6875C194.542 42.3958 194.469 43.0625 194.406 43.6875C194.344 44.3125 194.281 44.9583 194.219 45.625C194.156 46.2708 194.083 46.9688 194 47.7188C193.938 48.4688 193.854 49.3438 193.75 50.3438C193.646 51.3229 193.521 52.4583 193.375 53.75C193.229 55.0417 193.052 56.5417 192.844 58.25C192.719 59.5 192.594 60.75 192.469 62C192.344 63.2292 192.281 64.375 192.281 65.4375C192.281 66.0208 192.323 66.5625 192.406 67.0625C192.49 67.5417 192.635 67.9583 192.844 68.3125C193.073 68.6458 193.365 68.9062 193.719 69.0938C194.073 69.2812 194.531 69.375 195.094 69.375C195.531 69.375 196.125 69.2812 196.875 69.0938C197.625 68.8854 198.375 68.5417 199.125 68.0625C199.875 67.5625 200.531 66.9167 201.094 66.125C201.677 65.3125 202.01 64.2917 202.094 63.0625C202.24 61 202.365 59.2812 202.469 57.9062C202.594 56.5104 202.698 55.3438 202.781 54.4062C202.865 53.4479 202.938 52.6458 203 52C203.062 51.3542 203.115 50.7396 203.156 50.1562C203.219 49.5521 203.271 48.9167 203.312 48.25C203.354 47.5625 203.396 46.7083 203.438 45.6875C203.5 45 203.573 44.5312 203.656 44.2812C203.76 44.0104 204 43.8333 204.375 43.75C206.271 43.375 208.208 43 210.188 42.625C212.167 42.2292 214.104 41.7292 216 41.125C216.167 41.125 216.26 41.1562 216.281 41.2188C216.323 41.2604 216.344 41.3333 216.344 41.4375L213.406 72.125ZM233.562 65.8125C233.771 66.2292 234.062 66.6562 234.438 67.0938C234.833 67.5104 235.281 67.8958 235.781 68.25C236.302 68.6042 236.865 68.8958 237.469 69.125C238.073 69.3333 238.698 69.4375 239.344 69.4375C240.24 69.4375 241.083 69.0938 241.875 68.4062C242.667 67.6979 243.354 66.7604 243.938 65.5938C244.542 64.4062 245.01 63.0625 245.344 61.5625C245.677 60.0417 245.844 58.4688 245.844 56.8438C245.844 55.8438 245.75 54.8958 245.562 54C245.396 53.1042 245.125 52.3229 244.75 51.6562C244.375 50.9896 243.885 50.4583 243.281 50.0625C242.698 49.6667 241.99 49.4688 241.156 49.4688C239.802 49.4688 238.562 49.8646 237.438 50.6562C236.312 51.4479 235.365 52.4583 234.594 53.6875L233.562 65.8125ZM221.938 77.5312C221.646 77.5938 221.417 77.625 221.25 77.625C220.583 77.625 220.25 77.2292 220.25 76.4375C220.25 76.3333 220.25 76.2292 220.25 76.125C220.271 76.0208 220.292 75.9062 220.312 75.7812L223.938 31.5625C223.938 31.5 223.938 31.4375 223.938 31.375C223.958 31.3125 223.969 31.2604 223.969 31.2188C223.969 31.1354 223.958 31.0625 223.938 31C223.938 30.9375 223.938 30.8854 223.938 30.8438C223.938 30.6562 224 30.5104 224.125 30.4062C224.271 30.2812 224.625 30.1458 225.188 30L233.969 27.9062C234.198 27.8646 234.5 27.7708 234.875 27.625C235.25 27.4792 235.615 27.4062 235.969 27.4062C236.24 27.4062 236.49 27.4688 236.719 27.5938C236.969 27.7188 237.094 27.9583 237.094 28.3125C237.094 28.3542 237.083 28.3958 237.062 28.4375C237.062 28.4792 237.062 28.5208 237.062 28.5625C237.042 28.6667 236.99 29.125 236.906 29.9375C236.823 30.75 236.729 31.7396 236.625 32.9062C236.521 34.0521 236.406 35.2917 236.281 36.625C236.156 37.9375 236.042 39.1771 235.938 40.3438C235.833 41.4896 235.74 42.4688 235.656 43.2812C235.573 44.0938 235.521 44.5521 235.5 44.6562C237.021 43.6562 238.594 42.8229 240.219 42.1562C241.844 41.4688 243.469 41.125 245.094 41.125C247.24 41.125 249.094 41.5729 250.656 42.4688C252.219 43.3438 253.51 44.5208 254.531 46C255.552 47.4583 256.302 49.1458 256.781 51.0625C257.281 52.9792 257.531 54.9583 257.531 57C257.531 58.6458 257.375 60.3021 257.062 61.9688C256.771 63.6146 256.333 65.1979 255.75 66.7188C255.188 68.2396 254.469 69.6667 253.594 71C252.74 72.3333 251.75 73.4896 250.625 74.4688C249.521 75.4479 248.281 76.2188 246.906 76.7812C245.531 77.3438 244.042 77.625 242.438 77.625C240.5 77.625 238.729 77.1979 237.125 76.3438C235.521 75.4896 234.031 74.3854 232.656 73.0312C232.615 73.5312 232.583 73.9271 232.562 74.2188C232.542 74.5104 232.469 74.7396 232.344 74.9062C232.24 75.0521 232.073 75.1771 231.844 75.2812C231.615 75.3646 231.271 75.4583 230.812 75.5625C230.583 75.625 230.177 75.7292 229.594 75.875C229.031 76 228.344 76.1458 227.531 76.3125C226.74 76.5 225.854 76.6979 224.875 76.9062C223.917 77.1146 222.938 77.3229 221.938 77.5312Z" fill="#11151C"/>
<path d="M18.9375 68.375C18.9375 68.3542 18.9271 68.3438 18.9062 68.3438C18.9062 68.3229 18.9062 68.3021 18.9062 68.2812C18.9062 68.0104 19.0521 67.875 19.3438 67.875C19.5312 67.875 19.6979 67.9479 19.8438 68.0938C20.6771 68.8854 21.625 69.5312 22.6875 70.0312C23.7708 70.5312 24.9375 70.7812 26.1875 70.7812C26.5208 70.7812 26.9062 70.75 27.3438 70.6875C27.7812 70.6042 28.1979 70.4792 28.5938 70.3125C28.9896 70.1458 29.3125 69.9271 29.5625 69.6562C29.8333 69.3646 29.9688 69.0104 29.9688 68.5938C29.9688 68.1354 29.8542 67.7188 29.625 67.3438C29.3958 66.9479 29.0938 66.625 28.7188 66.375C28.5104 66.2292 28.1458 65.9792 27.625 65.625C27.1042 65.25 26.5417 64.8542 25.9375 64.4375C25.3542 64.0208 24.7917 63.625 24.25 63.25C23.7292 62.875 23.3646 62.6042 23.1562 62.4375C22.2188 61.7292 21.4688 61.0104 20.9062 60.2812C20.3646 59.5521 19.9479 58.8021 19.6562 58.0312C19.3646 57.2396 19.1771 56.4167 19.0938 55.5625C19.0104 54.7083 18.9688 53.8021 18.9688 52.8438C18.9688 51.3854 19.3542 50.0104 20.125 48.7188C20.8958 47.4271 21.9062 46.2917 23.1562 45.3125C24.4271 44.3333 25.8646 43.5625 27.4688 43C29.0729 42.4167 30.7083 42.125 32.375 42.125C33.75 42.125 35.1042 42.3333 36.4375 42.75C37.7708 43.1667 39.0104 43.875 40.1562 44.875C40.2604 46.1875 40.3333 47.4792 40.375 48.75C40.4167 50.0208 40.4792 51.3542 40.5625 52.75C40.5625 53.0208 40.5 53.2083 40.375 53.3125C40.25 53.3958 40.1042 53.4375 39.9375 53.4375C39.7917 53.4375 39.6667 53.3854 39.5625 53.2812C39.0833 52.8229 38.5938 52.375 38.0938 51.9375C37.5938 51.4792 37.0625 51.0833 36.5 50.75C35.9583 50.3958 35.375 50.1146 34.75 49.9062C34.125 49.6771 33.4583 49.5625 32.75 49.5625C32.3125 49.5625 31.875 49.6042 31.4375 49.6875C31 49.75 30.6042 49.8854 30.25 50.0938C29.8958 50.2812 29.6042 50.5417 29.375 50.875C29.1667 51.2083 29.0625 51.6354 29.0625 52.1562C29.0625 52.7604 29.1354 53.2812 29.2812 53.7188C29.4271 54.1562 29.7708 54.5833 30.3125 55L36.125 58.9375C37.1875 59.6667 38.0417 60.3854 38.6875 61.0938C39.3542 61.7812 39.875 62.4688 40.25 63.1562C40.625 63.8438 40.875 64.5312 41 65.2188C41.1458 65.8854 41.2188 66.5521 41.2188 67.2188C41.2188 69.0938 40.7812 70.75 39.9062 72.1875C39.0521 73.6042 37.9375 74.7917 36.5625 75.75C35.1875 76.6875 33.625 77.3958 31.875 77.875C30.1458 78.375 28.4062 78.625 26.6562 78.625C25.3229 78.625 24.0312 78.4792 22.7812 78.1875C21.5521 77.9167 20.4062 77.4896 19.3438 76.9062L18.9375 68.375ZM62.9062 78.625C59.9688 78.625 57.3854 78.1458 55.1562 77.1875C52.9479 76.2292 51.0938 74.9583 49.5938 73.375C48.0938 71.7708 46.9688 69.9375 46.2188 67.875C45.4688 65.7917 45.0938 63.6354 45.0938 61.4062C45.0938 59.1771 45.4583 57.0625 46.1875 55.0625C46.9167 53.0417 47.9375 51.2396 49.25 49.6562C50.5625 48.0521 52.1354 46.7188 53.9688 45.6562C55.8021 44.5729 57.8229 43.8438 60.0312 43.4688C60.3646 43.4479 60.5312 43.375 60.5312 43.25C60.5312 43.0208 60.5 42.8125 60.4375 42.625C60.3958 42.4167 60.375 42.2396 60.375 42.0938C60.375 41.8646 60.4167 41.7083 60.5 41.625C60.5833 41.5417 60.6771 41.5 60.7812 41.5C64.7604 41.5 68.1458 41.9583 70.9375 42.875C73.7292 43.7708 76 45 77.75 46.5625C79.5 48.125 80.7708 49.9688 81.5625 52.0938C82.3542 54.2188 82.75 56.5 82.75 58.9375C82.75 62.0417 82.2292 64.8125 81.1875 67.25C80.1458 69.6875 78.7188 71.75 76.9062 73.4375C75.1146 75.125 73.0104 76.4062 70.5938 77.2812C68.1979 78.1771 65.6354 78.625 62.9062 78.625ZM57.125 61.0625C57.125 62.1875 57.2396 63.3021 57.4688 64.4062C57.7188 65.5104 58.1146 66.5104 58.6562 67.4062C59.2188 68.3021 59.9479 69.0312 60.8438 69.5938C61.7396 70.1354 62.8542 70.4062 64.1875 70.4062C65.1458 70.3646 65.9792 70.1562 66.6875 69.7812C67.4167 69.3854 68.0417 68.8854 68.5625 68.2812C69.0833 67.6562 69.5104 66.9583 69.8438 66.1875C70.1979 65.4167 70.4688 64.625 70.6562 63.8125C70.8646 62.9792 71.0104 62.1667 71.0938 61.375C71.1771 60.5833 71.2188 59.8646 71.2188 59.2188C71.2188 58.1354 71.0521 57.0729 70.7188 56.0312C70.4062 54.9896 69.9375 54.0729 69.3125 53.2812C68.6875 52.4896 67.9062 51.8542 66.9688 51.375C66.0521 50.875 64.9896 50.625 63.7812 50.625C62.5312 50.625 61.4792 51 60.625 51.75C59.7708 52.4792 59.0833 53.3854 58.5625 54.4688C58.0625 55.5521 57.6979 56.6979 57.4688 57.9062C57.2396 59.0938 57.125 60.1458 57.125 61.0625ZM86.1562 61.75C86.1562 59.0208 86.6562 56.4688 87.6562 54.0938C88.6771 51.6979 90.0729 49.6146 91.8438 47.8438C93.6354 46.0729 95.7396 44.6771 98.1562 43.6562C100.594 42.6354 103.24 42.125 106.094 42.125C108.031 42.125 109.688 42.2812 111.062 42.5938C112.438 42.9062 113.562 43.2604 114.438 43.6562C115.312 44.0312 115.948 44.3854 116.344 44.7188C116.76 45.0312 116.969 45.1979 116.969 45.2188C116.969 45.3438 116.917 45.6979 116.812 46.2812C116.729 46.8438 116.625 47.5104 116.5 48.2812C116.396 49.0312 116.292 49.8125 116.188 50.625C116.104 51.4167 116.062 52.1042 116.062 52.6875C116.062 52.7917 116.031 52.9062 115.969 53.0312C115.906 53.1562 115.74 53.2188 115.469 53.2188C115.219 53.2188 114.854 53.1354 114.375 52.9688C113.896 52.7812 113.302 52.5833 112.594 52.375C111.906 52.1667 111.104 51.9792 110.188 51.8125C109.292 51.625 108.292 51.5312 107.188 51.5312C105.812 51.5312 104.573 51.7812 103.469 52.2812C102.365 52.7604 101.417 53.4375 100.625 54.3125C99.8333 55.1667 99.2188 56.1875 98.7812 57.375C98.3646 58.5625 98.1562 59.8438 98.1562 61.2188C98.1562 62.6562 98.375 63.8854 98.8125 64.9062C99.2708 65.9062 99.875 66.7292 100.625 67.375C101.375 68 102.24 68.4583 103.219 68.75C104.198 69.0417 105.229 69.1875 106.312 69.1875C107.562 69.1875 108.823 69.0208 110.094 68.6875C111.365 68.3333 112.562 67.8438 113.688 67.2188C113.729 67.1979 113.812 67.1875 113.938 67.1875C114.042 67.1875 114.115 67.2396 114.156 67.3438C114.219 67.4479 114.25 67.6458 114.25 67.9375C114.25 68.6042 114.25 69.4167 114.25 70.375C114.25 71.3125 114.24 72.2188 114.219 73.0938C114.219 73.9479 114.208 74.6771 114.188 75.2812C114.167 75.8854 114.146 76.1875 114.125 76.1875C113.375 76.6875 112.562 77.0938 111.688 77.4062C110.812 77.7188 109.906 77.9688 108.969 78.1562C108.052 78.3438 107.125 78.4688 106.188 78.5312C105.25 78.5938 104.344 78.625 103.469 78.625C101.031 78.625 98.7604 78.2188 96.6562 77.4062C94.5521 76.5938 92.7188 75.4479 91.1562 73.9688C89.6146 72.4896 88.3958 70.7188 87.5 68.6562C86.6042 66.5729 86.1562 64.2708 86.1562 61.75Z" fill="#F2F2F2"/>
</svg>
